<?xml version="1.0" encoding="UTF-8" standalone="no"?>
<svg
   xmlns:dc="http://purl.org/dc/elements/1.1/"
   xmlns:cc="http://creativecommons.org/ns#"
   xmlns:rdf="http://www.w3.org/1999/02/22-rdf-syntax-ns#"
   xmlns:svg="http://www.w3.org/2000/svg"
   xmlns="http://www.w3.org/2000/svg"
   height="177"
   width="655.56"
   id="svg44"
   version="1.1"
   viewBox="0 0 655.55998 177">
  <metadata
     id="metadata48">
    <rdf:RDF>
      <cc:Work
         rdf:about="">
        <dc:format>image/svg+xml</dc:format>
        <dc:type
           rdf:resource="http://purl.org/dc/dcmitype/StillImage" />
        <dc:title>open rechtspraak logo</dc:title>
      </cc:Work>
    </rdf:RDF>
  </metadata>
  <defs
     id="defs4">
    <style
       id="style2">.cls-1{isolation:isolate;}.cls-2{fill:#e6e6e6;}.cls-3,.cls-4,.cls-5{fill:none;stroke-width:16px;opacity:0.9;mix-blend-mode:multiply;}.cls-3{stroke:#751c58;}.cls-3,.cls-4{stroke-linejoin:bevel;}.cls-4{stroke:#5cbdb9;}.cls-5{stroke:#c21889;stroke-miterlimit:10;}.cls-6{font-size:72px;fill:#3d4a4c;font-family:Montserrat-Bold, Montserrat;font-weight:700;letter-spacing:-0.01em;}.cls-7{letter-spacing:-0.02em;}.cls-8{letter-spacing:-0.01em;}</style>
  </defs>
  <title
     id="title6">open rechtspraak logo</title>
  <g
     style="isolation:isolate"
     id="g42"
     class="cls-1">
    <g
       data-name="Layer 2"
       id="Layer_2">
      <g
         data-name="Layer 1"
         id="Layer_1-2">
        <path
           id="circle8"
           d="M 16,9 A 8,8 0 0 1 8,17 8,8 0 0 1 0,9 8,8 0 0 1 8,1 8,8 0 0 1 16,9 Z"
           style="fill:#e6e6e6" />
        <path
           id="circle10"
           d="m 16,89 a 8,8 0 0 1 -8,8 8,8 0 0 1 -8,-8 8,8 0 0 1 8,-8 8,8 0 0 1 8,8 z"
           style="fill:#e6e6e6" />
        <path
           id="circle12"
           d="m 16,169 a 8,8 0 0 1 -8,8 8,8 0 0 1 -8,-8 8,8 0 0 1 8,-8 8,8 0 0 1 8,8 z"
           style="fill:#e6e6e6" />
        <path
           id="circle14"
           d="m 96,9 a 8,8 0 0 1 -8,8 8,8 0 0 1 -8,-8 8,8 0 0 1 8,-8 8,8 0 0 1 8,8 z"
           style="fill:#e6e6e6" />
        <path
           id="circle16"
           d="m 96,89 a 8,8 0 0 1 -8,8 8,8 0 0 1 -8,-8 8,8 0 0 1 8,-8 8,8 0 0 1 8,8 z"
           style="fill:#e6e6e6" />
        <path
           id="circle18"
           d="m 96,169 a 8,8 0 0 1 -8,8 8,8 0 0 1 -8,-8 8,8 0 0 1 8,-8 8,8 0 0 1 8,8 z"
           style="fill:#e6e6e6" />
        <path
           id="circle20"
           d="m 176,9 a 8,8 0 0 1 -8,8 8,8 0 0 1 -8,-8 8,8 0 0 1 8,-8 8,8 0 0 1 8,8 z"
           style="fill:#e6e6e6" />
        <path
           id="circle22"
           d="m 176,89 a 8,8 0 0 1 -8,8 8,8 0 0 1 -8,-8 8,8 0 0 1 8,-8 8,8 0 0 1 8,8 z"
           style="fill:#e6e6e6" />
        <path
           id="circle24"
           d="m 176,169 a 8,8 0 0 1 -8,8 8,8 0 0 1 -8,-8 8,8 0 0 1 8,-8 8,8 0 0 1 8,8 z"
           style="fill:#e6e6e6" />
        <path
           id="polygon26"
           d="M 169.04,88.01 8,87.75 V 8.01 h 161.04 z"
           style="opacity:0.9;mix-blend-mode:multiply;fill:none;stroke:#751c58;stroke-width:16px;stroke-linejoin:bevel" />
        <path
           id="polygon28"
           d="M 169.3,8 V 89.19 L 88.3,8 Z"
           style="opacity:0.9;mix-blend-mode:multiply;fill:none;stroke:#5cbdb9;stroke-width:16px;stroke-linejoin:bevel" />
        <path
           id="circle30"
           d="M 88,89 A 40,40 0 0 1 48,129 40,40 0 0 1 8,89 40,40 0 0 1 48,49 40,40 0 0 1 88,89 Z"
           style="opacity:0.9;mix-blend-mode:multiply;fill:none;stroke:#c21889;stroke-width:16px;stroke-miterlimit:10" />
        <g
           id="text38"
           style="font-weight:700;font-size:72px;font-family:Montserrat-Bold, Montserrat;letter-spacing:-0.01em;fill:#3d4a4c"
           transform="translate(204.39,74.58)"
           aria-label="OpenRechtspraak">
          <path
             id="path893"
             style="font-weight:700;font-size:72px;font-family:Montserrat-Bold, Montserrat;letter-spacing:-0.01em;fill:#3d4a4c"
             d="m 44.712,-25.416 q 0,-6.768 -4.32,-11.52 -4.32,-4.752 -10.656,-4.752 -6.264,0 -10.584,4.752 -4.32,4.752 -4.32,11.52 0,6.696 4.32,11.448 4.32,4.68 10.584,4.68 6.336,0 10.656,-4.68 4.32,-4.752 4.32,-11.448 z m 3.816,18.504 q -7.632,7.416 -18.792,7.416 -11.16,0 -18.792,-7.416 -7.632,-7.488 -7.632,-18.576 0,-11.088 7.632,-18.504 7.632,-7.488 18.792,-7.488 11.16,0 18.792,7.488 7.632,7.416 7.632,18.504 0,11.088 -7.632,18.576 z" />
          <path
             id="path895"
             style="font-weight:700;font-size:72px;font-family:Montserrat-Bold, Montserrat;letter-spacing:-0.01em;fill:#3d4a4c"
             d="m 86.412374,-39.384 q 6.768,0 12.024,5.688 5.327996,5.616 5.327996,14.184 0,8.568 -5.327996,14.328 -5.256,5.76 -12.384,5.76 -7.056,0 -11.376,-5.688 v 19.08 h -10.8 v -52.704 h 10.8 v 4.32 q 4.968,-4.968 11.736,-4.968 z m -11.88,20.088 q 0,4.68 2.592,7.704 2.664,2.952 6.408,2.952 3.744,0 6.552,-2.952 2.808,-3.024 2.808,-7.704 0,-4.68 -2.736,-7.848 -2.736,-3.168 -6.552,-3.168 -3.816,0 -6.48,3.168 -2.592,3.096 -2.592,7.848 z" />
          <path
             id="path897"
             style="font-weight:700;font-size:72px;font-family:Montserrat-Bold, Montserrat;letter-spacing:-0.01em;fill:#3d4a4c"
             d="m 144.6615,-5.616 q -6.552,6.192 -15.408,6.192 -8.784,0 -14.544,-5.4 -5.76,-5.472 -5.76,-14.616 0,-9.144 5.832,-14.544 5.904,-5.4 13.896,-5.4 7.992,0 13.536,4.824 5.616,4.824 5.616,13.248 v 5.76 h -28.224 q 0.504,3.168 3.312,5.184 2.808,2.016 6.336,2.016 5.688,0 9.36,-3.816 z m -7.776,-17.64 q -0.36,-3.456 -2.592,-5.328 -2.232,-1.872 -5.472,-1.872 -3.168,0 -5.832,1.944 -2.664,1.944 -3.096,5.256 z" />
          <path
             id="path899"
             style="font-weight:700;font-size:72px;font-family:Montserrat-Bold, Montserrat;letter-spacing:-0.01em;fill:#3d4a4c"
             d="M 165.627,-21.6 V 0 h -10.8 v -38.736 h 10.8 v 4.32 q 4.896,-4.968 11.016,-4.968 6.12,0 10.224,4.32 4.176,4.32 4.176,11.52 V 0 h -10.8 v -21.888 q 0,-8.928 -6.552,-8.928 -3.24,0 -5.688,2.376 -2.376,2.304 -2.376,6.84 z" />
          <path
             id="path901"
             style=""
             d="M 47.016,38.376 Q 47.016,50.472 37.44,54 L 50.184,72 H 36.36 L 25.2,55.944 H 17.424 V 72 H 6.192 V 21.672 h 19.08 q 11.736,0 16.704,3.96 5.04,3.96 5.04,12.744 z m -21.384,7.848 q 5.76,0 7.848,-1.872 2.088,-1.872 2.088,-5.904 0,-4.104 -2.16,-5.616 -2.16,-1.512 -7.56,-1.512 h -8.424 v 14.904 z" />
          <path
             id="path903"
             style=""
             d="m 90.256499,66.384 q -6.552,6.192 -15.408,6.192 -8.784,0 -14.544,-5.4 -5.76,-5.472 -5.76,-14.616 0,-9.144 5.832,-14.544 5.904,-5.4 13.896,-5.4 7.992,0 13.536,4.824 5.616,4.824 5.616,13.248 v 5.76 h -28.224 q 0.504,3.168 3.312,5.184 2.808,2.016 6.336,2.016 5.688,0 9.36,-3.816 z m -7.776,-17.64 q -0.36,-3.456 -2.592,-5.328 -2.232,-1.872 -5.472,-1.872 -3.168,0 -5.832,1.944 -2.664,1.944 -3.096,5.256 z" />
          <path
             id="path905"
             style=""
             d="m 118.998,63 q 5.4,0 9.72,-5.4 l 6.408,7.2 q -7.488,7.776 -16.2,7.776 -8.712,0 -14.76,-5.472 -5.976002,-5.544 -5.976002,-14.4 0,-8.928 6.048002,-14.472 6.12,-5.616 14.472,-5.616 4.176,0 8.424,1.728 4.32,1.728 7.56,5.112 l -5.616,7.344 q -1.872,-2.232 -4.608,-3.456 -2.664,-1.224 -5.328,-1.224 -4.248,0 -7.344,2.808 -3.024,2.736 -3.024,7.704 0,4.896 3.024,7.632 3.096,2.736 7.2,2.736 z" />
          <path
             id="path907"
             style=""
             d="M 152.40825,51.12 V 72 h -10.8 V 18.576 h 10.8 v 19.008 q 4.896,-4.968 10.944,-4.968 6.12,0 10.296,4.32 4.176,4.32 4.176,11.52 V 72 h -10.8 V 50.832 q 0,-8.928 -6.552,-8.928 -3.24,0 -5.688,2.376 -2.376,2.304 -2.376,6.84 z" />
          <path
             id="path909"
             style=""
             d="m 199.76062,41.04 v 17.352 q 0,2.232 1.152,3.528 1.152,1.224 2.736,1.224 3.024,0 5.112,-2.736 l 4.032,7.56 q -5.04,4.608 -10.656,4.608 -5.544,0 -9.432,-3.672 -3.816,-3.672 -3.816,-10.008 V 41.04 h -4.536 v -7.776 h 4.536 V 21.672 h 10.872 v 11.592 h 9.36 v 7.776 z" />
          <path
             id="path911"
             style=""
             d="m 246.95324,59.976 q 0,5.688 -4.248,9.144 -4.176,3.456 -10.656,3.456 -4.32,0 -9,-1.512 -4.68,-1.584 -8.424,-4.608 l 4.752,-6.768 q 6.048,4.68 12.888,4.68 2.088,0 3.312,-0.792 1.224,-0.864 1.224,-2.232 0,-1.368 -1.728,-2.52 -1.656,-1.152 -4.896,-2.16 -3.168,-1.008 -4.896,-1.728 -1.656,-0.72 -3.816,-2.088 -4.392,-2.736 -4.392,-8.064 0,-5.4 4.32,-8.784 4.32,-3.384 11.16,-3.384 6.84,0 13.68,4.608 l -4.032,7.2 q -5.04,-3.456 -10.08,-3.456 -4.968,0 -4.968,2.736 0,1.512 1.584,2.376 1.584,0.864 5.256,2.016 3.672,1.152 5.184,1.8 1.584,0.576 3.744,1.872 4.032,2.448 4.032,8.208 z" />
          <path
             id="path913"
             style=""
             d="m 277.01549,32.616 q 6.768,0 12.024,5.688 5.328,5.616 5.328,14.184 0,8.568 -5.328,14.328 -5.256,5.76 -12.384,5.76 -7.056,0 -11.376,-5.688 v 19.08 h -10.8 V 33.264 h 10.8 v 4.32 q 4.968,-4.968 11.736,-4.968 z m -11.88,20.088 q 0,4.68 2.592,7.704 2.664,2.952 6.408,2.952 3.744,0 6.552,-2.952 2.808,-3.024 2.808,-7.704 0,-4.68 -2.736,-7.848 -2.736,-3.168 -6.552,-3.168 -3.816,0 -6.48,3.168 -2.592,3.096 -2.592,7.848 z" />
          <path
             id="path915"
             style=""
             d="m 322.08862,42.768 q -4.824,0 -7.2,3.456 -2.376,3.384 -2.376,9 V 72 h -10.8 V 33.264 h 10.8 v 5.112 q 2.088,-2.376 5.184,-4.032 3.168,-1.656 6.408,-1.728 l 0.072,10.152 z" />
          <path
             id="path917"
             style=""
             d="m 363.00599,72 h -10.152 v -4.68 q -4.176,5.256 -10.368,5.256 -6.12,0 -10.296,-3.528 -4.176,-3.6 -4.176,-9.504 0,-5.976 4.32,-8.928 4.32,-2.952 11.808,-2.952 h 8.064 v -0.216 q 0,-6.192 -6.552,-6.192 -2.808,0 -5.976,1.152 -3.096,1.08 -5.256,2.736 l -4.824,-6.984 q 7.632,-5.544 17.424,-5.544 7.056,0 11.52,3.528 4.464,3.528 4.464,11.16 z m -10.872,-14.76 v -1.872 h -6.768 q -6.48,0 -6.48,4.032 0,2.088 1.512,3.24 1.584,1.08 4.464,1.08 2.88,0 5.04,-1.728 2.232,-1.8 2.232,-4.752 z" />
          <path
             id="path919"
             style=""
             d="m 405.03599,72 h -10.152 v -4.68 q -4.176,5.256 -10.368,5.256 -6.12,0 -10.296,-3.528 -4.176,-3.6 -4.176,-9.504 0,-5.976 4.32,-8.928 4.32,-2.952 11.808,-2.952 h 8.064 v -0.216 q 0,-6.192 -6.552,-6.192 -2.808,0 -5.976,1.152 -3.096,1.08 -5.256,2.736 l -4.824,-6.984 q 7.632,-5.544 17.424,-5.544 7.056,0 11.52,3.528 4.464,3.528 4.464,11.16 z m -10.872,-14.76 v -1.872 h -6.768 q -6.48,0 -6.48,4.032 0,2.088 1.512,3.24 1.584,1.08 4.464,1.08 2.88,0 5.04,-1.728 2.232,-1.8 2.232,-4.752 z" />
          <path
             id="path921"
             style=""
             d="m 424.96199,72 h -10.8 V 18.576 h 10.8 v 27.432 l 12.024,-12.816 h 13.608 l -14.76,15.696 15.336,23.112 h -12.816 l -9.864,-14.832 -3.528,3.672 z" />
        </g>
      </g>
    </g>
  </g>
</svg>
