<svg xmlns="http://www.w3.org/2000/svg" version="1.1" xmlns:xlink="http://www.w3.org/1999/xlink" xmlns:svgjs="http://svgjs.dev/svgjs" width="1000" height="1000"><g clip-path="url(#SvgjsClipPath1200)"><rect width="1000" height="1000" fill="#ffffff"></rect><g transform="matrix(20.18975194149702,0,0,20.18975194149702,150,154.42987385298778)"><svg xmlns="http://www.w3.org/2000/svg" version="1.1" xmlns:xlink="http://www.w3.org/1999/xlink" xmlns:svgjs="http://svgjs.dev/svgjs" width="34.671055" height="34.232231"><svg id="Laag_1" data-name="Laag 1" viewBox="0 0 34.671054 34.23223" version="1.1" width="34.671055" height="34.232231" xmlns="http://www.w3.org/2000/svg" xmlns:svg="http://www.w3.org/2000/svg">
  <defs id="defs4">
    <style id="style2">
      .cls-1 {
        fill: #045d6f;
      }

      .cls-2 {
        fill: #81cde0;
      }
    </style>
  <clipPath id="SvgjsClipPath1200"><rect width="1000" height="1000" x="0" y="0" rx="150" ry="150"></rect></clipPath></defs>
  <path id="Path_8" data-name="Path 8" class="cls-1" d="m 28.391054,7.39 -10.5,10.5 c 3.06,2.73 7.76,2.47 10.5,-0.6 2.52,-2.82 2.52,-7.08 0,-9.9"></path>
  <path id="Path_9" data-name="Path 9" class="cls-2" d="m 27.801054,6.8 -10.5,10.5 c -2.73,-3.07 -2.45,-7.77 0.61,-10.5 2.82,-2.51 7.07,-2.51 9.88,0"></path>
  <path id="Path_8-2" data-name="Path 8" class="cls-1" d="m 24.171054,24.76 10.5,-10.5 c -3.06,-2.73 -7.76,-2.47 -10.5,0.6 -2.52,2.82 -2.52,7.08 0,9.9"></path>
  <path id="Path_9-2" data-name="Path 9" class="cls-2" d="m 9.901054,10.5 10.5,-10.5 c 2.73,3.07 2.45,7.77 -0.61,10.5 -2.82,2.51 -7.07,2.51 -9.88,0"></path>
  <path class="cls-2" d="m 13.611054,16.75 c 0,0 2.97,1.06 4.69,4.96 -5.65,5.44 -9.29,9.11 -10.82,10.98 -0.16,0.2 -0.67,0.88 -1.58,1.21 -1.8099998,0.65 -4.0599998,0.38 -4.93999981,-1.11 -2.08999969,-3.54 -0.12,-5.61 -0.12,-5.61 z" id="path44"></path>
</svg></svg></g></g></svg>
