<?xml version="1.0" encoding="UTF-8" standalone="no"?>
<svg
   id="Laag_1"
   data-name="Laag 1"
   viewBox="0 0 162.53105 45.589998"
   version="1.1"
   width="162.53105"
   height="45.59"
   xmlns="http://www.w3.org/2000/svg"
   xmlns:svg="http://www.w3.org/2000/svg">
  <defs
     id="defs4">
    <style
       id="style2">
      .cls-1 {
        fill: #045d6f;
      }

      .cls-2 {
        fill: #81cde0;
      }
    </style>
  </defs>
  <g
     id="g14"
     transform="translate(-16.258946,-13.63)">
    <path
       class="cls-2"
       d="m 71.2,29.02 c 0,0.88 -0.15,1.69 -0.46,2.42 -0.31,0.73 -0.73,1.36 -1.27,1.88 -0.54,0.52 -1.19,0.92 -1.93,1.21 -0.75,0.28 -1.56,0.43 -2.43,0.43 -0.87,0 -1.68,-0.14 -2.42,-0.43 -0.74,-0.28 -1.38,-0.69 -1.92,-1.21 -0.54,-0.52 -0.97,-1.15 -1.27,-1.88 -0.31,-0.73 -0.46,-1.54 -0.46,-2.42 0,-0.88 0.15,-1.7 0.46,-2.42 0.31,-0.72 0.73,-1.33 1.27,-1.84 0.54,-0.5 1.18,-0.89 1.92,-1.17 0.74,-0.27 1.55,-0.41 2.42,-0.41 0.87,0 1.68,0.14 2.43,0.41 0.75,0.27 1.39,0.66 1.93,1.17 0.54,0.5 0.97,1.12 1.27,1.84 0.3,0.72 0.46,1.53 0.46,2.42 z m -2.89,0 c 0,-0.48 -0.08,-0.94 -0.24,-1.36 -0.16,-0.42 -0.38,-0.78 -0.65,-1.08 -0.28,-0.3 -0.62,-0.54 -1.01,-0.71 -0.39,-0.17 -0.83,-0.26 -1.3,-0.26 -0.47,0 -0.9,0.09 -1.29,0.26 -0.39,0.17 -0.73,0.41 -1.01,0.71 -0.28,0.3 -0.5,0.66 -0.65,1.08 -0.15,0.42 -0.23,0.87 -0.23,1.36 0,0.49 0.08,0.97 0.24,1.4 0.16,0.43 0.38,0.79 0.65,1.1 0.28,0.31 0.61,0.54 1,0.72 0.39,0.18 0.82,0.26 1.29,0.26 0.47,0 0.9,-0.09 1.29,-0.26 0.39,-0.17 0.73,-0.41 1.01,-0.72 0.28,-0.3 0.5,-0.67 0.66,-1.1 0.16,-0.43 0.24,-0.89 0.24,-1.4 z"
       id="path6"
       style="fill:#045d6f;fill-opacity:1" />
    <path
       class="cls-2"
       d="m 81.45,26.93 c 0,0.65 -0.12,1.2 -0.36,1.65 -0.24,0.45 -0.57,0.81 -0.98,1.08 -0.41,0.27 -0.88,0.47 -1.42,0.6 -0.54,0.13 -1.09,0.19 -1.67,0.19 h -1.34 v 4.21 h -2.7 V 23.49 h 4.1 c 0.61,0 1.18,0.06 1.71,0.18 0.53,0.12 0.99,0.32 1.39,0.58 0.39,0.27 0.7,0.62 0.93,1.06 0.23,0.44 0.34,0.98 0.34,1.62 z m -2.7,0.02 c 0,-0.26 -0.05,-0.48 -0.16,-0.65 -0.11,-0.17 -0.25,-0.3 -0.43,-0.39 -0.18,-0.09 -0.38,-0.16 -0.61,-0.19 -0.23,-0.03 -0.46,-0.05 -0.7,-0.05 h -1.18 v 2.63 h 1.14 c 0.25,0 0.49,-0.02 0.73,-0.06 0.23,-0.04 0.44,-0.12 0.62,-0.22 0.18,-0.1 0.33,-0.24 0.43,-0.42 0.1,-0.17 0.16,-0.39 0.16,-0.65 z"
       id="path8"
       style="fill:#045d6f;fill-opacity:1" />
    <path
       class="cls-2"
       d="M 83.08,34.66 V 23.49 h 7.51 v 2.27 h -4.91 v 2.11 h 4.64 v 2.16 h -4.64 v 2.32 h 5.19 v 2.3 h -7.79 z"
       id="path10"
       style="fill:#045d6f;fill-opacity:1" />
    <path
       class="cls-2"
       d="m 99.75,34.66 -4.5,-7.3 H 95.2 l 0.06,7.3 H 92.64 V 23.49 h 3.08 l 4.48,7.29 h 0.05 l -0.06,-7.29 h 2.62 v 11.17 z"
       id="path12"
       style="fill:#045d6f;fill-opacity:1" />
  </g>
  <g
     id="g38"
     transform="translate(-16.258946,-13.63)">
    <path
       class="cls-1"
       d="m 59.66,42.52 h 3.96 c 0.54,0 1.06,0.06 1.56,0.17 0.5,0.11 0.95,0.3 1.35,0.56 0.39,0.26 0.71,0.6 0.94,1.01 0.24,0.42 0.35,0.93 0.35,1.53 0,0.83 -0.23,1.5 -0.7,2.02 -0.47,0.52 -1.1,0.87 -1.91,1.05 l 3.04,5.06 H 65.8 l -2.64,-4.83 h -1.48 v 4.83 H 59.65 V 42.51 Z m 3.69,4.91 c 0.29,0 0.58,-0.02 0.87,-0.06 0.29,-0.04 0.55,-0.12 0.78,-0.24 0.23,-0.12 0.42,-0.29 0.57,-0.51 0.15,-0.22 0.23,-0.5 0.23,-0.85 0,-0.31 -0.07,-0.57 -0.21,-0.77 -0.14,-0.2 -0.32,-0.36 -0.53,-0.47 -0.21,-0.11 -0.46,-0.2 -0.73,-0.24 -0.27,-0.04 -0.54,-0.06 -0.8,-0.06 h -1.84 v 3.21 h 1.66 z"
       id="path16" />
    <path
       class="cls-1"
       d="m 69.79,42.52 h 7.56 v 1.77 h -5.53 v 2.9 h 5.24 v 1.71 h -5.24 v 3.22 h 5.82 v 1.8 H 69.79 V 42.51 Z"
       id="path18" />
    <path
       class="cls-1"
       d="m 87.85,45.19 c -0.3,-0.41 -0.69,-0.71 -1.18,-0.89 -0.48,-0.19 -0.96,-0.28 -1.42,-0.28 -0.59,0 -1.13,0.11 -1.61,0.32 -0.48,0.21 -0.9,0.51 -1.25,0.89 -0.35,0.38 -0.62,0.82 -0.81,1.32 -0.19,0.5 -0.28,1.05 -0.28,1.64 0,0.62 0.09,1.19 0.27,1.71 0.18,0.52 0.44,0.96 0.78,1.33 0.34,0.37 0.74,0.66 1.22,0.86 0.47,0.2 1,0.31 1.59,0.31 0.59,0 1.15,-0.12 1.63,-0.36 0.47,-0.24 0.85,-0.56 1.14,-0.96 l 1.63,1.14 c -0.5,0.63 -1.12,1.13 -1.85,1.47 -0.73,0.35 -1.58,0.52 -2.56,0.52 -0.89,0 -1.71,-0.15 -2.46,-0.44 -0.75,-0.29 -1.39,-0.71 -1.92,-1.24 -0.54,-0.53 -0.96,-1.17 -1.26,-1.9 -0.3,-0.74 -0.45,-1.55 -0.45,-2.44 0,-0.89 0.16,-1.74 0.48,-2.47 0.32,-0.74 0.75,-1.36 1.3,-1.88 0.55,-0.52 1.21,-0.91 1.96,-1.19 0.75,-0.28 1.57,-0.42 2.45,-0.42 0.36,0 0.75,0.04 1.14,0.1 0.4,0.07 0.78,0.18 1.14,0.32 0.36,0.14 0.71,0.33 1.03,0.54 0.32,0.22 0.6,0.47 0.82,0.77 l -1.55,1.22 z"
       id="path20" />
    <path
       class="cls-1"
       d="m 90.83,42.52 h 2.03 v 4.61 h 5.33 v -4.61 h 2.03 v 11.41 h -2.03 v -5.06 h -5.33 v 5.06 h -2.03 z"
       id="path22" />
    <path
       class="cls-1"
       d="m 105.04,44.29 h -3.5 v -1.77 h 9.02 v 1.77 h -3.5 v 9.63 h -2.03 v -9.63 z"
       id="path24" />
    <path
       class="cls-1"
       d="m 117.7,44.9 c -0.22,-0.28 -0.52,-0.51 -0.91,-0.7 -0.39,-0.19 -0.79,-0.28 -1.18,-0.28 -0.24,0 -0.47,0.03 -0.71,0.09 -0.24,0.06 -0.45,0.15 -0.64,0.27 -0.19,0.12 -0.35,0.29 -0.48,0.48 -0.12,0.2 -0.19,0.44 -0.19,0.72 0,0.26 0.05,0.48 0.16,0.66 0.11,0.18 0.25,0.34 0.44,0.47 0.19,0.13 0.42,0.24 0.68,0.34 0.26,0.1 0.56,0.19 0.89,0.29 0.36,0.12 0.74,0.25 1.14,0.4 0.39,0.15 0.75,0.35 1.08,0.6 0.33,0.25 0.6,0.56 0.81,0.93 0.21,0.37 0.31,0.84 0.31,1.4 0,0.61 -0.11,1.15 -0.34,1.6 -0.23,0.46 -0.53,0.83 -0.9,1.14 -0.38,0.3 -0.82,0.53 -1.32,0.68 -0.5,0.15 -1.04,0.23 -1.59,0.23 -0.74,0 -1.47,-0.14 -2.17,-0.41 -0.71,-0.27 -1.29,-0.68 -1.74,-1.22 l 1.45,-1.35 c 0.28,0.39 0.65,0.69 1.12,0.92 0.47,0.23 0.93,0.34 1.38,0.34 0.24,0 0.48,-0.03 0.73,-0.09 0.25,-0.06 0.47,-0.16 0.67,-0.3 0.2,-0.14 0.36,-0.31 0.48,-0.52 0.12,-0.21 0.19,-0.47 0.19,-0.78 0,-0.31 -0.07,-0.55 -0.21,-0.75 -0.14,-0.2 -0.33,-0.37 -0.56,-0.52 -0.24,-0.15 -0.52,-0.27 -0.84,-0.38 -0.32,-0.11 -0.66,-0.22 -1.02,-0.34 -0.34,-0.11 -0.69,-0.24 -1.03,-0.39 -0.34,-0.15 -0.65,-0.35 -0.93,-0.6 -0.27,-0.25 -0.5,-0.55 -0.67,-0.91 -0.17,-0.36 -0.26,-0.81 -0.26,-1.34 0,-0.58 0.12,-1.08 0.36,-1.5 0.24,-0.42 0.56,-0.77 0.95,-1.04 0.39,-0.27 0.84,-0.48 1.34,-0.61 0.5,-0.13 1.01,-0.2 1.52,-0.2 0.58,0 1.17,0.1 1.76,0.31 0.6,0.2 1.11,0.51 1.55,0.92 l -1.32,1.45 z"
       id="path26" />
    <path
       class="cls-1"
       d="m 121.13,42.52 h 3.72 c 0.65,0 1.25,0.06 1.77,0.18 0.53,0.12 0.98,0.31 1.35,0.58 0.37,0.27 0.67,0.61 0.87,1.03 0.2,0.42 0.31,0.92 0.31,1.51 0,0.63 -0.12,1.17 -0.35,1.6 -0.24,0.43 -0.56,0.78 -0.96,1.04 -0.4,0.26 -0.87,0.45 -1.41,0.57 -0.54,0.12 -1.11,0.18 -1.71,0.18 h -1.56 v 4.72 h -2.03 z m 3.45,4.98 c 0.33,0 0.65,-0.02 0.95,-0.07 0.3,-0.05 0.57,-0.13 0.81,-0.26 0.24,-0.13 0.42,-0.29 0.56,-0.51 0.14,-0.21 0.21,-0.49 0.21,-0.84 0,-0.35 -0.07,-0.6 -0.21,-0.81 -0.14,-0.21 -0.33,-0.37 -0.56,-0.49 -0.23,-0.12 -0.49,-0.2 -0.79,-0.23 -0.3,-0.04 -0.6,-0.06 -0.91,-0.06 h -1.48 v 3.27 z"
       id="path28" />
    <path
       class="cls-1"
       d="m 130.96,42.52 h 3.96 c 0.54,0 1.06,0.06 1.56,0.17 0.5,0.11 0.95,0.3 1.35,0.56 0.39,0.26 0.71,0.6 0.94,1.01 0.24,0.42 0.35,0.93 0.35,1.53 0,0.83 -0.23,1.5 -0.7,2.02 -0.47,0.52 -1.1,0.87 -1.91,1.05 l 3.04,5.06 h -2.45 l -2.64,-4.83 h -1.48 v 4.83 h -2.03 V 42.51 Z m 3.69,4.91 c 0.29,0 0.58,-0.02 0.87,-0.06 0.29,-0.04 0.55,-0.12 0.78,-0.24 0.23,-0.12 0.42,-0.29 0.57,-0.51 0.15,-0.22 0.23,-0.5 0.23,-0.85 0,-0.31 -0.07,-0.57 -0.21,-0.77 -0.14,-0.2 -0.32,-0.36 -0.53,-0.47 -0.21,-0.11 -0.46,-0.2 -0.73,-0.24 -0.27,-0.04 -0.54,-0.06 -0.8,-0.06 h -1.84 v 3.21 h 1.66 z"
       id="path30" />
    <path
       class="cls-1"
       d="m 144.67,42.52 h 1.76 l 4.91,11.41 h -2.32 l -1.06,-2.61 h -4.95 l -1.03,2.61 h -2.27 z m 2.58,7.06 -1.76,-4.64 -1.79,4.64 h 3.54 z"
       id="path32" />
    <path
       class="cls-1"
       d="m 156.04,42.52 h 1.76 l 4.91,11.41 h -2.32 l -1.06,-2.61 h -4.95 l -1.03,2.61 h -2.27 z m 2.58,7.06 -1.76,-4.64 -1.79,4.64 h 3.54 z"
       id="path34" />
    <path
       class="cls-1"
       d="m 163.84,42.52 h 2.03 v 4.93 h 0.05 l 4.77,-4.93 h 2.74 l -5.33,5.27 5.69,6.14 h -2.85 l -5.01,-5.72 h -0.05 v 5.72 h -2.03 V 42.52 Z"
       id="path36" />
  </g>
  <path
     id="Path_8"
     data-name="Path 8"
     class="cls-1"
     d="m 33.391054,12.39 -10.5,10.5 c 3.06,2.73 7.76,2.47 10.5,-0.6 2.52,-2.82 2.52,-7.08 0,-9.9" />
  <path
     id="Path_9"
     data-name="Path 9"
     class="cls-2"
     d="m 32.801054,11.8 -10.5,10.5 c -2.73,-3.07 -2.45,-7.77 0.61,-10.5 2.82,-2.51 7.07,-2.51 9.88,0" />
  <path
     id="Path_8-2"
     data-name="Path 8"
     class="cls-1"
     d="m 29.171054,29.76 10.5,-10.5 c -3.06,-2.73 -7.76,-2.47 -10.5,0.6 -2.52,2.82 -2.52,7.08 0,9.9" />
  <path
     id="Path_9-2"
     data-name="Path 9"
     class="cls-2"
     d="m 14.901054,15.5 10.5,-10.5 c 2.73,3.07 2.45,7.77 -0.61,10.5 -2.82,2.51 -7.07,2.51 -9.88,0" />
  <path
     class="cls-2"
     d="m 18.611054,21.75 c 0,0 2.97,1.06 4.69,4.96 -5.65,5.44 -9.29,9.11 -10.82,10.98 -0.16,0.2 -0.67,0.88 -1.58,1.21 -1.8099998,0.65 -4.0599998,0.38 -4.9399998,-1.11 -2.0899997,-3.54 -0.12,-5.61 -0.12,-5.61 z"
     id="path44" />
</svg>
