<?xml version="1.0" standalone="no"?>
<!DOCTYPE svg PUBLIC "-//W3C//DTD SVG 20010904//EN"
 "http://www.w3.org/TR/2001/REC-SVG-20010904/DTD/svg10.dtd">
<svg version="1.0" xmlns="http://www.w3.org/2000/svg"
 width="700.000000pt" height="700.000000pt" viewBox="0 0 700.000000 700.000000"
 preserveAspectRatio="xMidYMid meet">
<metadata>
Created by potrace 1.14, written by Peter Selinger 2001-2017
</metadata>
<g transform="translate(0.000000,700.000000) scale(0.100000,-0.100000)"
fill="#000000" stroke="none">
<path d="M297 6980 c-8 -10 -39 -25 -69 -34 -97 -28 -171 -97 -209 -195 -18
-49 -19 -101 -18 -1743 1 -1783 0 -1730 45 -1938 24 -110 88 -297 141 -408 25
-53 49 -99 53 -102 3 -3 13 -20 21 -38 8 -17 17 -32 21 -32 5 0 8 -6 8 -12 0
-12 41 -72 127 -183 43 -56 235 -256 241 -250 2 2 16 -9 30 -24 59 -59 187
-144 342 -228 80 -43 263 -117 330 -133 19 -5 62 -16 95 -24 230 -60 529 -67
795 -20 14 2 52 11 85 19 33 9 69 17 79 20 83 20 260 91 365 147 101 54 231
138 231 149 0 5 6 9 13 9 32 0 346 306 355 346 2 8 7 14 11 14 5 0 38 44 73
97 85 128 111 173 102 173 -4 0 0 8 8 18 43 48 147 328 174 465 8 43 24 131
24 133 0 1 516 2 1146 1 630 -1 1148 1 1151 5 2 5 10 5 16 1 7 -4 99 -8 204
-8 122 -1 201 -6 215 -13 109 -54 262 -26 351 63 43 43 69 90 86 151 7 25 21
48 36 58 l25 16 0 1603 0 1603 -31 30 c-17 16 -38 43 -46 59 -29 57 -85 116
-137 145 -29 17 -63 41 -76 55 l-24 25 -3187 -1 c-3041 -1 -3187 -2 -3202 -19z
m3051 -626 c31 -12 61 -35 95 -71 7 -7 180 -182 385 -388 227 -229 377 -373
384 -369 7 4 8 3 4 -5 -8 -12 370 -398 386 -394 4 2 7 -1 5 -5 -4 -14 186
-201 198 -195 5 4 7 2 3 -2 -5 -5 232 -248 525 -542 292 -293 533 -537 535
-541 1 -4 -355 -6 -790 -5 -436 1 -912 2 -1058 3 l-266 0 -14 63 c-7 34 -15
67 -16 72 -2 6 -7 26 -13 45 -5 19 -22 71 -39 115 -97 263 -236 480 -437 680
-134 135 -200 189 -216 179 -8 -4 -9 -3 -5 4 15 24 -254 181 -414 242 -47 18
-94 37 -105 41 -11 5 -29 11 -40 12 -11 2 -27 6 -35 9 -78 26 -194 50 -320 65
-76 9 -310 9 -395 0 -103 -11 -148 -17 -167 -23 -9 -3 -27 -7 -40 -9 -13 -3
-36 -7 -53 -11 -39 -8 -232 -71 -248 -81 -7 -4 -18 -8 -25 -9 -28 -5 -43 -14
-37 -24 3 -5 0 -7 -8 -4 -11 4 -87 -31 -187 -87 -58 -33 -179 -116 -230 -159
-30 -26 -61 -50 -67 -54 -10 -6 -13 142 -13 727 l0 734 1343 0 c1112 1 1348
-2 1375 -13z m3010 -1048 l0 -1060 -1049 1055 c-577 580 -1049 1056 -1049
1059 0 3 472 5 1049 5 l1049 0 0 -1059z m-6188 260 c0 -3 -4 -8 -10 -11 -5 -3
-10 -1 -10 4 0 6 5 11 10 11 6 0 10 -2 10 -4z m1885 -830 c75 -9 203 -40 275
-67 79 -30 229 -107 270 -138 40 -31 83 -61 114 -78 11 -7 18 -13 14 -13 -3 0
24 -30 60 -67 37 -38 80 -83 95 -100 34 -41 137 -206 137 -220 0 -6 6 -16 14
-22 8 -6 16 -22 19 -34 2 -12 16 -52 30 -89 l26 -66 -588 1 c-323 0 -593 -3
-599 -7 -7 -4 -12 -4 -12 1 0 10 -101 10 -117 0 -7 -5 -13 -5 -13 0 0 4 -78 8
-174 8 -101 0 -172 -4 -169 -9 4 -5 0 -6 -7 -1 -21 13 -120 14 -113 1 3 -6 0
-5 -7 1 -10 9 -17 10 -27 2 -7 -7 -13 -8 -13 -3 0 5 -27 9 -59 9 -36 1 -57 -3
-54 -9 4 -5 1 -6 -7 -1 -20 12 -130 13 -130 1 0 -7 -3 -8 -8 -1 -4 6 -69 10
-160 10 -85 0 -156 4 -159 8 -5 9 35 126 49 141 4 6 8 16 8 23 0 17 85 158
127 211 19 23 32 42 28 42 -3 0 34 40 82 88 165 165 312 257 519 326 95 31
115 35 259 55 58 8 204 6 290 -3z m377 -1525 c673 -1 697 -2 693 -20 -19 -97
-85 -261 -147 -364 -41 -67 -148 -207 -159 -207 -4 0 -11 -9 -14 -20 -3 -11
-11 -20 -16 -20 -6 0 -20 -10 -32 -23 -12 -12 -47 -43 -77 -67 -30 -25 -57
-47 -60 -50 -7 -7 -45 -29 -123 -70 -37 -20 -65 -38 -63 -41 3 -3 -3 -5 -12
-6 -9 -1 -30 -7 -47 -13 -16 -6 -32 -12 -35 -12 -3 0 -13 -5 -24 -10 -34 -18
-189 -56 -261 -64 -161 -17 -332 -8 -453 25 -23 7 -46 9 -51 6 -5 -3 -11 -2
-13 2 -1 5 -28 17 -58 27 -116 41 -242 108 -345 185 -68 51 -225 205 -225 221
0 5 -4 10 -8 10 -5 0 -15 11 -22 25 -7 13 -18 22 -23 18 -6 -3 -7 -2 -4 4 7
10 -46 96 -55 88 -2 -3 -5 1 -5 7 0 7 -16 48 -36 91 -39 82 -79 187 -71 187 3
0 1 8 -4 18 -5 9 -12 29 -16 44 -5 22 -2 27 16 30 13 2 255 2 538 1 283 -1
829 -2 1212 -2z"/>
<path d="M6569 625 c-69 -14 -107 -34 -158 -85 -66 -66 -92 -129 -93 -229 0
-110 72 -225 176 -279 43 -22 64 -26 137 -27 76 0 92 3 144 30 75 38 138 114
161 192 66 227 -136 446 -367 398z"/>
<path d="M205 613 c-72 -25 -156 -110 -185 -188 -17 -47 -21 -74 -17 -127 22
-326 444 -407 599 -116 33 62 33 202 0 270 -30 61 -90 120 -149 149 -63 31
-176 36 -248 12z"/>
<path d="M3373 616 c-77 -25 -141 -82 -182 -160 -23 -44 -26 -63 -26 -141 1
-73 5 -98 23 -133 57 -108 152 -171 270 -179 125 -9 243 60 299 175 24 48 28
70 28 137 0 66 -5 90 -26 135 -32 67 -85 121 -148 151 -57 27 -177 35 -238 15z"/>
</g>
</svg>
